<svg width="16" height="20" viewBox="0 0 16 20" fill="none" xmlns="http://www.w3.org/2000/svg">
<path d="M15.9959 17.2883L14.8513 4.39264C14.8268 4.10634 14.5856 3.88957 14.3035 3.88957H11.9489C11.9162 1.73824 10.1584 0 8 0C5.84159 0 4.0838 1.73824 4.0511 3.88957H1.69647C1.41032 3.88957 1.17322 4.10634 1.1487 4.39264L0.00408798 17.2883C0.00408798 17.3047 0 17.3211 0 17.3374C0 18.8057 1.34492 20 3.00051 20H12.9995C14.6551 20 16 18.8057 16 17.3374C16 17.3211 16 17.3047 15.9959 17.2883ZM8 1.10429C9.54931 1.10429 10.8125 2.34765 10.8452 3.88957H5.15483C5.18753 2.34765 6.45069 1.10429 8 1.10429ZM12.9995 18.8957H3.00051C1.96219 18.8957 1.12008 18.2086 1.10373 17.362L2.19928 4.99795H4.04701V6.67485C4.04701 6.9816 4.29228 7.22699 4.59888 7.22699C4.90547 7.22699 5.15074 6.9816 5.15074 6.67485V4.99795H10.8452V6.67485C10.8452 6.9816 11.0904 7.22699 11.397 7.22699C11.7036 7.22699 11.9489 6.9816 11.9489 6.67485V4.99795H13.7966L14.8963 17.362C14.8799 18.2086 14.0337 18.8957 12.9995 18.8957Z" fill="white"/>
</svg>
