<svg width="13" height="13" viewBox="0 0 13 13" fill="none" xmlns="http://www.w3.org/2000/svg">
<g clip-path="url(#clip0_213:446)">
<path d="M11.7781 2.90574L11.4911 2.04533C11.3818 1.71764 11.0762 1.49745 10.7308 1.49745H8.31842V0.712029C8.31842 0.319466 7.99925 0 7.60679 0H5.3976C5.00524 0 4.68597 0.319466 4.68597 0.712029V1.49745H2.27367C1.92821 1.49745 1.62263 1.71764 1.51333 2.04533L1.2263 2.90574C1.16094 3.10162 1.19407 3.31853 1.31477 3.48605C1.43548 3.65357 1.63077 3.75365 1.83726 3.75365H2.13729L2.79764 11.9194C2.84674 12.5253 3.3609 13 3.96839 13H9.17C9.77739 13 10.2916 12.5253 10.3406 11.9193L11.001 3.75365H11.1671C11.3736 3.75365 11.5689 3.65357 11.6896 3.48615C11.8103 3.31863 11.8435 3.10162 11.7781 2.90574V2.90574ZM5.44769 0.761719H7.5567V1.49745H5.44769V0.761719ZM9.5814 11.8579C9.56415 12.0713 9.38344 12.2383 9.17 12.2383H3.96839C3.75495 12.2383 3.57424 12.0713 3.55698 11.8579L2.90149 3.75365H10.2368L9.5814 11.8579ZM2.00062 2.99193L2.23598 2.28635C2.24133 2.27008 2.25651 2.25917 2.27367 2.25917H10.7308C10.748 2.25917 10.7631 2.27008 10.7685 2.28635L11.0039 2.99193H2.00062Z" fill="white"/>
<path d="M8.36661 11.8309C8.37335 11.8313 8.38 11.8314 8.38674 11.8314C8.58798 11.8314 8.7562 11.6737 8.76671 11.4704L9.12437 4.60479C9.13528 4.39472 8.97381 4.2155 8.76384 4.20459C8.55327 4.19338 8.37464 4.35505 8.36363 4.56512L8.00608 11.4307C7.99517 11.6408 8.15654 11.82 8.36661 11.8309V11.8309Z" fill="white"/>
<path d="M4.2546 11.4713C4.2657 11.6743 4.43372 11.8314 4.63456 11.8314C4.6415 11.8314 4.64864 11.8312 4.65569 11.8308C4.86565 11.8194 5.02663 11.6399 5.01522 11.4298L4.64061 4.56422C4.62921 4.35415 4.44969 4.19318 4.23962 4.20468C4.02965 4.21609 3.86868 4.39561 3.88009 4.60568L4.2546 11.4713Z" fill="white"/>
<path d="M6.50641 11.8314C6.71677 11.8314 6.88727 11.6609 6.88727 11.4505V4.58496C6.88727 4.3746 6.71677 4.2041 6.50641 4.2041C6.29604 4.2041 6.12555 4.3746 6.12555 4.58496V11.4505C6.12555 11.6609 6.29604 11.8314 6.50641 11.8314Z" fill="white"/>
</g>
<defs>
<clipPath id="clip0_213:446">
<rect width="13" height="13" fill="white"/>
</clipPath>
</defs>
</svg>
