<svg width="22" height="22" viewBox="0 0 22 22" fill="none" xmlns="http://www.w3.org/2000/svg">
<path d="M18.1968 5.12723C18.1968 5.85583 17.606 6.4466 16.8772 6.4466C16.1486 6.4466 15.5579 5.85583 15.5579 5.12723C15.5579 4.39846 16.1486 3.80786 16.8772 3.80786C17.606 3.80786 18.1968 4.39846 18.1968 5.12723Z" fill="#C4C4C4"/>
<path d="M21.9399 6.46808C21.8884 5.29913 21.6993 4.49549 21.4285 3.79912C21.1492 3.05995 20.7194 2.39817 20.1563 1.84802C19.6062 1.28932 18.94 0.855181 18.2094 0.580193C17.509 0.309403 16.7096 0.12037 15.5406 0.0688308C14.363 0.0129267 13.9891 0 11.0022 0C8.01526 0 7.64139 0.0129267 6.46808 0.0644659C5.29913 0.116005 4.49549 0.305206 3.79929 0.575828C3.05995 0.855181 2.39816 1.28495 1.84802 1.84802C1.28932 2.39817 0.855348 3.06431 0.580193 3.79493C0.309403 4.49549 0.12037 5.29477 0.0688307 6.46371C0.0129267 7.64139 0 8.01526 0 11.0022C0 13.9891 0.0129267 14.363 0.0644659 15.5363C0.116005 16.7052 0.305206 17.5089 0.575996 18.2052C0.855348 18.9444 1.28932 19.6062 1.84802 20.1563C2.39816 20.715 3.06431 21.1492 3.79493 21.4242C4.49549 21.695 5.29476 21.884 6.46388 21.9355C7.63703 21.9872 8.01106 22 10.998 22C13.9849 22 14.3588 21.9872 15.5321 21.9355C16.701 21.884 17.5047 21.695 18.2009 21.4242C19.6794 20.8525 20.8483 19.6836 21.42 18.2052C21.6906 17.5047 21.8798 16.7052 21.9313 15.5363C21.9829 14.363 21.9958 13.9891 21.9958 11.0022C21.9958 8.01526 21.9914 7.64139 21.9399 6.46808ZM19.9587 15.4503C19.9114 16.5248 19.7309 17.105 19.5805 17.4918C19.2108 18.4502 18.4502 19.2108 17.4917 19.5805C17.1049 19.7309 16.5206 19.9114 15.4503 19.9586C14.2899 20.0103 13.9419 20.023 11.0065 20.023C8.07116 20.023 7.71878 20.0103 6.56259 19.9586C5.48816 19.9114 4.90797 19.7309 4.52117 19.5805C4.04423 19.4042 3.61009 19.1249 3.25771 18.7596C2.8924 18.4028 2.61305 17.9731 2.43678 17.4961C2.28636 17.1093 2.10589 16.5248 2.05871 15.4547C2.007 14.2943 1.99425 13.9461 1.99425 11.0107C1.99425 8.07536 2.007 7.72298 2.05871 6.56696C2.10589 5.49253 2.28636 4.91234 2.43678 4.52554C2.61305 4.04843 2.8924 3.61446 3.26207 3.26191C3.61865 2.8966 4.04842 2.61725 4.52554 2.44114C4.91233 2.29072 5.49689 2.11025 6.56696 2.06291C7.72734 2.01137 8.07553 1.99844 11.0107 1.99844C13.9505 1.99844 14.2985 2.01137 15.4547 2.06291C16.5291 2.11025 17.1093 2.29072 17.4961 2.44114C17.9731 2.61725 18.4072 2.8966 18.7596 3.26191C19.1249 3.61865 19.4042 4.04843 19.5805 4.52554C19.7309 4.91234 19.9114 5.49673 19.9587 6.56696C20.0103 7.72735 20.0232 8.07536 20.0232 11.0107C20.0232 13.9461 20.0103 14.2899 19.9587 15.4503Z" fill="#C4C4C4"/>
<path d="M11.0023 5.35071C7.88229 5.35071 5.35083 7.882 5.35083 11.0022C5.35083 14.1224 7.88229 16.6537 11.0023 16.6537C14.1226 16.6537 16.6539 14.1224 16.6539 11.0022C16.6539 7.882 14.1226 5.35071 11.0023 5.35071ZM11.0023 14.6682C8.97821 14.6682 7.33635 13.0265 7.33635 11.0022C7.33635 8.97792 8.97821 7.33622 11.0023 7.33622C13.0266 7.33622 14.6683 8.97792 14.6683 11.0022C14.6683 13.0265 13.0266 14.6682 11.0023 14.6682Z" fill="#C4C4C4"/>
</svg>
