<svg width="22" height="22" viewBox="0 0 22 22" fill="none" xmlns="http://www.w3.org/2000/svg">
<path d="M18.8097 3.16192C11.7615 -3.65154 0.0971649 1.29012 0.0925817 10.9021C0.0925817 12.8234 0.595823 14.697 1.55464 16.3516L0 22L5.80698 20.4857C13.0531 24.3998 21.9959 19.2024 21.9996 10.9076C21.9996 7.99634 20.863 5.25647 18.7959 3.19767L18.8097 3.16192ZM20.1681 10.8774C20.1626 17.8742 12.482 22.2438 6.40738 18.6726L6.07739 18.4764L2.63995 19.3701L3.56119 16.0289L3.34211 15.6852C-0.438159 9.66739 3.90493 1.80253 11.0658 1.80253C13.4986 1.80253 15.782 2.75126 17.5016 4.46998C19.2203 6.17404 20.1681 8.45741 20.1681 10.8774Z" fill="#C4C4C4"/>
<path d="M16.0475 13.1151L16.0393 13.1838C14.0236 12.1792 13.8127 12.0454 13.5524 12.4359C13.3718 12.7063 12.8457 13.3195 12.6871 13.501C12.5267 13.6798 12.3672 13.6935 12.0949 13.5698C11.8199 13.4323 10.9372 13.1435 9.89222 12.2085C9.07824 11.4798 8.53192 10.5861 8.37059 10.3111C8.10201 9.84724 8.66391 9.78124 9.1754 8.81326C9.26707 8.62076 9.22032 8.46952 9.15249 8.33294C9.08374 8.19544 8.5365 6.84796 8.30734 6.31081C8.08734 5.77548 7.86093 5.84331 7.69135 5.84331C7.16336 5.79748 6.77745 5.80481 6.43737 6.15864C4.9579 7.78478 5.33097 9.46225 6.59687 11.246C9.08466 14.502 10.4101 15.1015 12.8338 15.9338C13.4882 16.1419 14.085 16.1125 14.5571 16.0447C15.0832 15.9613 16.1768 15.3838 16.405 14.7376C16.6388 14.0913 16.6388 13.5551 16.57 13.4313C16.5022 13.3076 16.3225 13.2388 16.0475 13.1151Z" fill="#C4C4C4"/>
</svg>
